<svg width="24" height="24" viewBox="0 0 24 24" fill="none" xmlns="http://www.w3.org/2000/svg">
<g clip-path="url(#clip0_58_22)">
<path d="M5.48122 1.99208C5.39267 1.87817 5.28089 1.7844 5.15332 1.71701C5.02575 1.64962 4.8853 1.61015 4.7413 1.60121C4.5973 1.59227 4.45304 1.61408 4.31811 1.66517C4.18319 1.71627 4.06068 1.79549 3.95872 1.89758L2.40772 3.45008C1.68322 4.17608 1.41622 5.20358 1.73272 6.10508C3.04633 9.83646 5.18316 13.2242 7.98472 16.0171C10.7776 18.8186 14.1654 20.9554 17.8967 22.2691C18.7982 22.5856 19.8257 22.3186 20.5517 21.5941L22.1027 20.0431C22.2048 19.9411 22.284 19.8186 22.3351 19.6837C22.3862 19.5488 22.408 19.4045 22.3991 19.2605C22.3902 19.1165 22.3507 18.976 22.2833 18.8485C22.2159 18.7209 22.1221 18.6091 22.0082 18.5206L18.5477 15.8296C18.426 15.7352 18.2845 15.6697 18.1338 15.638C17.9831 15.6063 17.8271 15.6092 17.6777 15.6466L14.3927 16.4671C13.9542 16.5767 13.4949 16.5709 13.0593 16.4502C12.6237 16.3295 12.2268 16.0982 11.9072 15.7786L8.22322 12.0931C7.90337 11.7736 7.67171 11.3768 7.55079 10.9412C7.42987 10.5057 7.42382 10.0462 7.53322 9.60758L8.35522 6.32258C8.39258 6.17317 8.39552 6.01723 8.36382 5.86652C8.33212 5.71581 8.2666 5.57427 8.17222 5.45258L5.48122 1.99208ZM2.82622 0.766576C3.08871 0.504 3.40406 0.300272 3.75133 0.168918C4.09859 0.0375644 4.46983 -0.0184086 4.84039 0.00471584C5.21095 0.0278403 5.57235 0.129533 5.90059 0.303041C6.22883 0.47655 6.51641 0.717904 6.74422 1.01108L9.43522 4.47008C9.92872 5.10458 10.1027 5.93108 9.90772 6.71108L9.08722 9.99608C9.0448 10.1662 9.04709 10.3444 9.09387 10.5134C9.14065 10.6824 9.23034 10.8365 9.35422 10.9606L13.0397 14.6461C13.164 14.7702 13.3183 14.86 13.4875 14.9068C13.6568 14.9536 13.8354 14.9558 14.0057 14.9131L17.2892 14.0926C17.6741 13.9963 18.0759 13.9889 18.4641 14.0707C18.8524 14.1526 19.2169 14.3216 19.5302 14.5651L22.9892 17.2561C24.2327 18.2236 24.3467 20.0611 23.2337 21.1726L21.6827 22.7236C20.5727 23.8336 18.9137 24.3211 17.3672 23.7766C13.409 22.3839 9.81513 20.1178 6.85222 17.1466C3.88115 14.1841 1.61513 10.5908 0.222218 6.63308C-0.320782 5.08808 0.166718 3.42758 1.27672 2.31758L2.82772 0.766576H2.82622Z" fill="white"/>
</g>
<defs>
<clipPath id="clip0_58_22">
<rect width="24" height="24" fill="white"/>
</clipPath>
</defs>
</svg>
